<svg width="30" height="30" viewBox="0 0 30 30" fill="none" xmlns="http://www.w3.org/2000/svg">
<path d="M2.28713 2.27117L3.59942 1.13402C5.11168 -0.378007 7.56129 -0.378007 9.07354 1.13402C9.11104 1.17151 11.4232 4.18307 11.4232 4.18307C12.8479 5.6826 12.8479 8.04436 11.4232 9.5314L9.9734 11.3558C11.7981 15.492 14.6352 18.3411 18.6345 20.0406L20.4592 18.5786C21.9465 17.1415 24.3211 17.1415 25.8084 18.5786C25.8084 18.5786 28.8204 20.8903 28.8579 20.9278C30.3701 22.4399 30.3701 24.8891 28.9204 26.3386L27.6706 27.7757C26.2333 29.2127 24.2961 30 22.1964 30C12.648 30 -1.90735e-06 17.3415 -1.90735e-06 7.80694C-1.90735e-06 5.72009 0.787373 3.7707 2.28713 2.28366V2.27117ZM22.1964 27.4883C23.6212 27.4883 24.9335 26.9634 25.8334 26.0512L27.0832 24.6142C27.5956 24.1018 27.6206 23.2646 27.1331 22.7273C27.1331 22.7273 24.1461 20.428 24.1086 20.3905C23.5962 19.8782 22.6964 19.8782 22.1714 20.3905C22.1339 20.428 19.6219 22.4399 19.6219 22.4399C19.2719 22.7148 18.8095 22.7898 18.397 22.6273C13.2229 20.6529 9.51097 16.9541 7.37382 11.6182C7.21134 11.2059 7.27383 10.731 7.56129 10.3686C7.56129 10.3686 9.57346 7.84442 9.59846 7.81943C10.1359 7.2821 10.1359 6.41987 9.59846 5.88254C9.56097 5.84505 7.26133 2.85848 7.26133 2.85848C6.72392 2.37113 5.88655 2.38363 5.31165 2.95845L3.99936 4.09559C3.03701 5.05779 2.4996 6.36988 2.4996 7.79444C2.4996 16.4917 14.7101 27.4883 22.1964 27.4883Z" fill="#465976"/>
</svg>
